<?xml version="1.0" encoding="utf-8"?>
<!-- Generator: Adobe Illustrator 24.3.0, SVG Export Plug-In . SVG Version: 6.00 Build 0)  -->
<svg version="1.1" id="katman_1" xmlns="http://www.w3.org/2000/svg" xmlns:xlink="http://www.w3.org/1999/xlink" x="0px" y="0px"
	 viewBox="0 0 11.9 9.2" style="enable-background:new 0 0 11.9 9.2;" xml:space="preserve">
<style type="text/css">
	.st0{opacity:0.85;fill:#2B840C;}
</style>
<path class="st0" d="M4.1,9.1c-0.2,0-0.5,0-0.7-0.1S3,8.8,2.8,8.5L0.4,5.6C0.2,5.3,0,5,0,4.6s0.1-0.7,0.4-1l2.4-2.9
	C3,0.5,3.2,0.4,3.4,0.2C3.6,0.1,3.9,0,4.1,0h6.1c0.5,0,0.9,0.2,1.2,0.5s0.5,0.7,0.5,1.2v5.8c0,0.5-0.2,0.9-0.5,1.2s-0.7,0.5-1.2,0.5
	L4.1,9.1L4.1,9.1z M10.8,8.2V1V8.2z M4.4,8.2h5.8c0.2,0,0.3-0.1,0.5-0.2c0.1-0.1,0.2-0.3,0.2-0.5V1.7c0-0.2-0.1-0.3-0.2-0.5
	C10.6,1,10.3,1,10.2,1H4.4C4.2,1,4,1.1,3.8,1.2C3.6,1.3,3.5,1.4,3.4,1.6L1.1,4.2C1.1,4.3,1,4.4,1,4.6S1,4.9,1.1,5l2.3,2.6
	C3.5,7.8,3.7,7.9,3.8,8C3.9,8.1,4.2,8.2,4.4,8.2z M6.9,5.2l1.3,1.3c0.1,0.1,0.2,0.1,0.3,0.2s0.2,0,0.3-0.2C8.9,6.4,9,6.3,9,6.2
	S8.9,6,8.8,5.9L7.5,4.6l1.3-1.3C8.9,3.2,8.9,3.1,9,3c0-0.1,0-0.2-0.2-0.3C8.7,2.6,8.6,2.5,8.5,2.5S8.3,2.6,8.2,2.7L6.9,4L5.6,2.7
	C5.5,2.6,5.4,2.5,5.3,2.5C5.2,2.5,5.1,2.6,5,2.7C4.9,2.8,4.8,2.9,4.8,3S4.9,3.2,5,3.3l1.3,1.3L5,5.9C4.9,6,4.9,6.1,4.8,6.2
	s0,0.2,0.2,0.3c0.1,0.1,0.2,0.2,0.3,0.2s0.2-0.1,0.3-0.2L6.9,5.2z"/>
</svg>
